<?xml version="1.0" encoding="utf-8"?>
<!-- Generator: Adobe Illustrator 16.0.0, SVG Export Plug-In . SVG Version: 6.00 Build 0)  -->
<!DOCTYPE svg PUBLIC "-//W3C//DTD SVG 1.1//EN" "http://www.w3.org/Graphics/SVG/1.1/DTD/svg11.dtd">
<svg version="1.1" id="Layer_2" xmlns="http://www.w3.org/2000/svg" xmlns:xlink="http://www.w3.org/1999/xlink" x="0px" y="0px"
	 width="500px" height="500px" viewBox="0 0 500 500" enable-background="new 0 0 500 500" xml:space="preserve">
<g id="Layer_3">
</g>
<g>
	<path fill="#FFFFFF" d="M250.524,166.995c-45.873,0-83.192,37.318-83.192,83.188c0,45.869,37.32,83.186,83.192,83.186
		c45.869,0,83.187-37.316,83.187-83.186C333.711,204.313,296.394,166.995,250.524,166.995z"/>
	<path fill="#FEC10D" d="M250.524,145.977c-57.462,0-104.211,46.747-104.211,104.206c0,57.458,46.749,104.204,104.211,104.204
		c57.458,0,104.205-46.746,104.205-104.204C354.729,192.723,307.982,145.977,250.524,145.977z M250.524,333.368
		c-45.873,0-83.192-37.316-83.192-83.186c0-45.87,37.32-83.188,83.192-83.188c45.869,0,83.187,37.318,83.187,83.188
		C333.711,296.052,296.394,333.368,250.524,333.368z"/>
	<path fill="#FEC10D" d="M250.516,128.196c-5.804,0-10.509-4.706-10.509-10.509v-57.54c0-5.804,4.705-10.509,10.509-10.509
		c5.805,0,10.509,4.706,10.509,10.509v57.54C261.024,123.49,256.32,128.196,250.516,128.196z"/>
	<path fill="#FEC10D" d="M250.521,450.362c-5.804,0-10.509-4.705-10.509-10.51v-57.184c0-5.804,4.705-10.509,10.509-10.509
		c5.805,0,10.509,4.705,10.509,10.509v57.184C261.03,445.657,256.326,450.362,250.521,450.362z"/>
	<path fill="#FEC10D" d="M439.491,260.688h-56.487c-5.805,0-10.51-4.704-10.51-10.509c0-5.804,4.705-10.509,10.51-10.509h56.487
		c5.804,0,10.509,4.705,10.509,10.509C450,255.984,445.295,260.688,439.491,260.688z"/>
	<path fill="#FEC10D" d="M118.027,260.684H60.509c-5.804,0-10.509-4.704-10.509-10.509c0-5.804,4.705-10.509,10.509-10.509h57.518
		c5.804,0,10.509,4.705,10.509,10.509C128.536,255.979,123.831,260.684,118.027,260.684z"/>
	<path fill="#FEC10D" d="M344.197,167.001c-2.69,0-5.379-1.026-7.432-3.078c-4.104-4.104-4.104-10.758,0-14.862l30.853-30.854
		c4.104-4.104,10.758-4.104,14.863,0c4.104,4.104,4.104,10.758,0,14.862l-30.854,30.854
		C349.576,165.975,346.887,167.001,344.197,167.001z"/>
	<path fill="#FEC10D" d="M125.636,385.569c-2.689,0-5.378-1.025-7.431-3.077c-4.104-4.104-4.105-10.758-0.001-14.862l31.192-31.197
		c4.104-4.105,10.757-4.106,14.863-0.001c4.104,4.104,4.104,10.758,0.001,14.861l-31.193,31.198
		C131.015,384.543,128.325,385.569,125.636,385.569z"/>
	<path fill="#FEC10D" d="M375.456,385.635c-2.689,0-5.378-1.026-7.431-3.078l-31.66-31.661c-4.104-4.104-4.104-10.759,0-14.862
		c4.104-4.104,10.757-4.104,14.862,0l31.66,31.66c4.104,4.104,4.104,10.759,0,14.863
		C380.836,384.608,378.146,385.635,375.456,385.635z"/>
	<path fill="#FEC10D" d="M156.831,167.001c-2.689,0-5.379-1.026-7.431-3.078l-31.196-31.198c-4.104-4.104-4.104-10.758,0.001-14.862
		c4.104-4.104,10.758-4.105,14.862,0l31.196,31.197c4.104,4.104,4.104,10.758,0,14.862
		C162.21,165.975,159.521,167.001,156.831,167.001z"/>
</g>
</svg>
